<?xml version="1.0" encoding="utf-8"?>
<!-- Generator: Adobe Illustrator 19.0.0, SVG Export Plug-In . SVG Version: 6.00 Build 0)  -->
<svg version="1.1" id="Layer_1" xmlns="http://www.w3.org/2000/svg" xmlns:xlink="http://www.w3.org/1999/xlink" x="0px" y="0px"
	 viewBox="-330.7 649 464 328" style="enable-background:new -330.7 649 464 328;" xml:space="preserve">
<style type="text/css">
	.st0{fill:#E09A16;}
	.st1{font-family:'DINAlternate-Bold';}
	.st2{font-size:120px;}
	.st3{fill:none;stroke:#E09B26;stroke-width:4;stroke-miterlimit:10;}
	.st4{font-family:'HelveticaNeue-Thin';}
</style>
<g>
	<path class="st0" d="M31.8,871.1c-22.2,50-72.3,84.8-130.5,84.8s-108.3-34.8-130.5-84.8h-21.7c23.4,61.3,82.7,104.8,152.2,104.8
		S30.1,932.4,53.5,871.1H31.8L31.8,871.1z"/>
	<path class="st0" d="M-229.3,755c22.2-50,72.3-84.8,130.5-84.8S9.5,705,31.7,755h21.6C30,693.8-29.3,650.2-98.7,650.2
		S-227.5,693.8-250.9,755H-229.3z"/>
</g>
<g>
	<text transform="matrix(1 0 0 1 -326.1804 855.2476)" class="st0 st1 st2">ATOM</text>
	<text transform="matrix(1 0 0 1 -326.1804 855.2476)" class="st3 st1 st2">ATOM</text>
	<text transform="matrix(0.8 0 0 1 -21.6758 855.2479)" class="st0 st4 st2">S/A</text>
</g>
</svg>
